<mxfile host="app.diagrams.net" agent="Mozilla/5.0 (Windows NT 10.0; Win64; x64) AppleWebKit/537.36 (KHTML, like Gecko) Chrome/134.0.0.0 Safari/537.36" version="26.1.1">
  <diagram id="C5RBs43oDa-KdzZeNtuy" name="Page-1">
    <mxGraphModel dx="2036" dy="927" grid="1" gridSize="10" guides="1" tooltips="1" connect="1" arrows="1" fold="1" page="1" pageScale="1" pageWidth="827" pageHeight="1169" math="0" shadow="0">
      <root>
        <mxCell id="WIyWlLk6GJQsqaUBKTNV-0" />
        <mxCell id="WIyWlLk6GJQsqaUBKTNV-1" parent="WIyWlLk6GJQsqaUBKTNV-0" />
        <mxCell id="NLumwokNqdI5FqmdFJhr-14" style="edgeStyle=none;curved=1;rounded=0;orthogonalLoop=1;jettySize=auto;html=1;fontSize=12;startSize=8;endSize=8;" edge="1" parent="WIyWlLk6GJQsqaUBKTNV-1" source="WIyWlLk6GJQsqaUBKTNV-3">
          <mxGeometry relative="1" as="geometry">
            <mxPoint x="220" y="170" as="targetPoint" />
          </mxGeometry>
        </mxCell>
        <mxCell id="WIyWlLk6GJQsqaUBKTNV-3" value="Mulai" style="rounded=1;whiteSpace=wrap;html=1;fontSize=12;glass=0;strokeWidth=1;shadow=0;" parent="WIyWlLk6GJQsqaUBKTNV-1" vertex="1">
          <mxGeometry x="160" y="80" width="120" height="40" as="geometry" />
        </mxCell>
        <mxCell id="NLumwokNqdI5FqmdFJhr-0" value="Data Pasien" style="strokeWidth=2;html=1;shape=mxgraph.flowchart.document2;whiteSpace=wrap;size=0.25;" vertex="1" parent="WIyWlLk6GJQsqaUBKTNV-1">
          <mxGeometry x="170" y="180" width="100" height="50" as="geometry" />
        </mxCell>
        <mxCell id="NLumwokNqdI5FqmdFJhr-1" value="" style="rounded=0;html=1;jettySize=auto;orthogonalLoop=1;fontSize=11;endArrow=block;endFill=0;endSize=8;strokeWidth=1;shadow=0;labelBackgroundColor=none;edgeStyle=orthogonalEdgeStyle;" edge="1" parent="WIyWlLk6GJQsqaUBKTNV-1">
          <mxGeometry relative="1" as="geometry">
            <mxPoint x="219.5" y="230" as="sourcePoint" />
            <mxPoint x="219.5" y="280" as="targetPoint" />
          </mxGeometry>
        </mxCell>
        <mxCell id="NLumwokNqdI5FqmdFJhr-2" value="Data Tenaga&lt;div&gt;Medis&lt;/div&gt;" style="strokeWidth=2;html=1;shape=mxgraph.flowchart.document2;whiteSpace=wrap;size=0.25;" vertex="1" parent="WIyWlLk6GJQsqaUBKTNV-1">
          <mxGeometry x="170" y="420" width="100" height="50" as="geometry" />
        </mxCell>
        <mxCell id="NLumwokNqdI5FqmdFJhr-3" value="" style="rounded=0;html=1;jettySize=auto;orthogonalLoop=1;fontSize=11;endArrow=block;endFill=0;endSize=8;strokeWidth=1;shadow=0;labelBackgroundColor=none;edgeStyle=orthogonalEdgeStyle;" edge="1" parent="WIyWlLk6GJQsqaUBKTNV-1">
          <mxGeometry relative="1" as="geometry">
            <mxPoint x="219.58" y="610" as="sourcePoint" />
            <mxPoint x="219.29" y="670" as="targetPoint" />
          </mxGeometry>
        </mxCell>
        <mxCell id="NLumwokNqdI5FqmdFJhr-15" value="" style="edgeStyle=none;curved=1;rounded=0;orthogonalLoop=1;jettySize=auto;html=1;fontSize=12;startSize=8;endSize=8;" edge="1" parent="WIyWlLk6GJQsqaUBKTNV-1" source="NLumwokNqdI5FqmdFJhr-4" target="NLumwokNqdI5FqmdFJhr-2">
          <mxGeometry relative="1" as="geometry" />
        </mxCell>
        <mxCell id="NLumwokNqdI5FqmdFJhr-4" value="Input Data Pasien" style="rounded=0;whiteSpace=wrap;html=1;" vertex="1" parent="WIyWlLk6GJQsqaUBKTNV-1">
          <mxGeometry x="160" y="280" width="120" height="60" as="geometry" />
        </mxCell>
        <mxCell id="NLumwokNqdI5FqmdFJhr-5" value="" style="rounded=0;html=1;jettySize=auto;orthogonalLoop=1;fontSize=11;endArrow=block;endFill=0;endSize=8;strokeWidth=1;shadow=0;labelBackgroundColor=none;edgeStyle=orthogonalEdgeStyle;" edge="1" parent="WIyWlLk6GJQsqaUBKTNV-1">
          <mxGeometry relative="1" as="geometry">
            <mxPoint x="290" y="309.29" as="sourcePoint" />
            <mxPoint x="350" y="310" as="targetPoint" />
          </mxGeometry>
        </mxCell>
        <mxCell id="NLumwokNqdI5FqmdFJhr-6" value="Data&amp;nbsp;&lt;div&gt;Pasien&lt;/div&gt;" style="shape=cylinder3;whiteSpace=wrap;html=1;boundedLbl=1;backgroundOutline=1;size=15;" vertex="1" parent="WIyWlLk6GJQsqaUBKTNV-1">
          <mxGeometry x="360" y="270" width="60" height="60" as="geometry" />
        </mxCell>
        <mxCell id="NLumwokNqdI5FqmdFJhr-7" value="" style="rounded=0;html=1;jettySize=auto;orthogonalLoop=1;fontSize=11;endArrow=block;endFill=0;endSize=8;strokeWidth=1;shadow=0;labelBackgroundColor=none;edgeStyle=orthogonalEdgeStyle;" edge="1" parent="WIyWlLk6GJQsqaUBKTNV-1">
          <mxGeometry relative="1" as="geometry">
            <mxPoint x="430" y="309.29" as="sourcePoint" />
            <mxPoint x="490" y="310" as="targetPoint" />
          </mxGeometry>
        </mxCell>
        <mxCell id="NLumwokNqdI5FqmdFJhr-8" value="1" style="ellipse;whiteSpace=wrap;html=1;aspect=fixed;" vertex="1" parent="WIyWlLk6GJQsqaUBKTNV-1">
          <mxGeometry x="500" y="285" width="45" height="45" as="geometry" />
        </mxCell>
        <mxCell id="NLumwokNqdI5FqmdFJhr-11" value="" style="endArrow=none;html=1;rounded=0;fontSize=12;startSize=8;endSize=8;curved=1;" edge="1" parent="WIyWlLk6GJQsqaUBKTNV-1">
          <mxGeometry width="50" height="50" relative="1" as="geometry">
            <mxPoint x="389" y="380" as="sourcePoint" />
            <mxPoint x="389.29" y="330" as="targetPoint" />
          </mxGeometry>
        </mxCell>
        <mxCell id="NLumwokNqdI5FqmdFJhr-13" value="" style="endArrow=classic;html=1;rounded=0;fontSize=12;startSize=8;endSize=8;curved=1;" edge="1" parent="WIyWlLk6GJQsqaUBKTNV-1">
          <mxGeometry width="50" height="50" relative="1" as="geometry">
            <mxPoint x="390" y="380" as="sourcePoint" />
            <mxPoint x="230" y="380" as="targetPoint" />
          </mxGeometry>
        </mxCell>
        <mxCell id="NLumwokNqdI5FqmdFJhr-16" value="" style="edgeStyle=none;curved=1;rounded=0;orthogonalLoop=1;jettySize=auto;html=1;fontSize=12;startSize=8;endSize=8;" edge="1" parent="WIyWlLk6GJQsqaUBKTNV-1">
          <mxGeometry relative="1" as="geometry">
            <mxPoint x="219" y="480" as="sourcePoint" />
            <mxPoint x="219.29" y="550" as="targetPoint" />
          </mxGeometry>
        </mxCell>
        <mxCell id="NLumwokNqdI5FqmdFJhr-17" value="Data Obat" style="strokeWidth=2;html=1;shape=mxgraph.flowchart.document2;whiteSpace=wrap;size=0.25;" vertex="1" parent="WIyWlLk6GJQsqaUBKTNV-1">
          <mxGeometry x="160" y="810" width="100" height="50" as="geometry" />
        </mxCell>
        <mxCell id="NLumwokNqdI5FqmdFJhr-18" value="Input Data Obat" style="rounded=0;whiteSpace=wrap;html=1;" vertex="1" parent="WIyWlLk6GJQsqaUBKTNV-1">
          <mxGeometry x="160" y="930" width="110" height="50" as="geometry" />
        </mxCell>
        <mxCell id="NLumwokNqdI5FqmdFJhr-19" value="" style="rounded=0;html=1;jettySize=auto;orthogonalLoop=1;fontSize=11;endArrow=block;endFill=0;endSize=8;strokeWidth=1;shadow=0;labelBackgroundColor=none;edgeStyle=orthogonalEdgeStyle;" edge="1" parent="WIyWlLk6GJQsqaUBKTNV-1">
          <mxGeometry relative="1" as="geometry">
            <mxPoint x="290" y="959.29" as="sourcePoint" />
            <mxPoint x="350" y="960" as="targetPoint" />
          </mxGeometry>
        </mxCell>
        <mxCell id="NLumwokNqdI5FqmdFJhr-20" value="Data Obat" style="shape=cylinder3;whiteSpace=wrap;html=1;boundedLbl=1;backgroundOutline=1;size=15;" vertex="1" parent="WIyWlLk6GJQsqaUBKTNV-1">
          <mxGeometry x="360" y="920" width="60" height="60" as="geometry" />
        </mxCell>
        <mxCell id="NLumwokNqdI5FqmdFJhr-22" value="2" style="ellipse;whiteSpace=wrap;html=1;aspect=fixed;" vertex="1" parent="WIyWlLk6GJQsqaUBKTNV-1">
          <mxGeometry x="500" y="930" width="50" height="50" as="geometry" />
        </mxCell>
        <mxCell id="NLumwokNqdI5FqmdFJhr-23" value="Pasien&lt;div&gt;Bertemu&amp;nbsp;&lt;/div&gt;&lt;div&gt;Dokter&lt;/div&gt;" style="verticalLabelPosition=middle;verticalAlign=middle;html=1;shape=trapezoid;perimeter=trapezoidPerimeter;whiteSpace=wrap;size=0.23;arcSize=10;flipV=1;labelPosition=center;align=center;" vertex="1" parent="WIyWlLk6GJQsqaUBKTNV-1">
          <mxGeometry x="170" y="554.5" width="100" height="45.5" as="geometry" />
        </mxCell>
        <mxCell id="NLumwokNqdI5FqmdFJhr-24" value="Diagnosis&amp;nbsp;&lt;div&gt;dan Resep Obat&lt;/div&gt;" style="rounded=0;whiteSpace=wrap;html=1;" vertex="1" parent="WIyWlLk6GJQsqaUBKTNV-1">
          <mxGeometry x="160" y="675" width="110" height="60" as="geometry" />
        </mxCell>
        <mxCell id="NLumwokNqdI5FqmdFJhr-25" value="" style="edgeStyle=none;curved=1;rounded=0;orthogonalLoop=1;jettySize=auto;html=1;fontSize=12;startSize=8;endSize=8;" edge="1" parent="WIyWlLk6GJQsqaUBKTNV-1">
          <mxGeometry relative="1" as="geometry">
            <mxPoint x="214.29" y="735" as="sourcePoint" />
            <mxPoint x="214.57999999999998" y="805" as="targetPoint" />
          </mxGeometry>
        </mxCell>
        <mxCell id="NLumwokNqdI5FqmdFJhr-26" value="" style="edgeStyle=none;curved=1;rounded=0;orthogonalLoop=1;jettySize=auto;html=1;fontSize=12;startSize=8;endSize=8;" edge="1" parent="WIyWlLk6GJQsqaUBKTNV-1">
          <mxGeometry relative="1" as="geometry">
            <mxPoint x="214.29" y="850" as="sourcePoint" />
            <mxPoint x="214.57999999999998" y="920" as="targetPoint" />
          </mxGeometry>
        </mxCell>
        <mxCell id="NLumwokNqdI5FqmdFJhr-27" value="" style="rounded=0;html=1;jettySize=auto;orthogonalLoop=1;fontSize=11;endArrow=block;endFill=0;endSize=8;strokeWidth=1;shadow=0;labelBackgroundColor=none;edgeStyle=orthogonalEdgeStyle;" edge="1" parent="WIyWlLk6GJQsqaUBKTNV-1">
          <mxGeometry relative="1" as="geometry">
            <mxPoint x="430" y="954.29" as="sourcePoint" />
            <mxPoint x="490" y="955" as="targetPoint" />
          </mxGeometry>
        </mxCell>
        <mxCell id="NLumwokNqdI5FqmdFJhr-28" value="Pembayaran" style="rounded=0;whiteSpace=wrap;html=1;" vertex="1" parent="WIyWlLk6GJQsqaUBKTNV-1">
          <mxGeometry x="160" y="1030" width="110" height="50" as="geometry" />
        </mxCell>
        <mxCell id="NLumwokNqdI5FqmdFJhr-29" value="" style="edgeStyle=none;curved=1;rounded=0;orthogonalLoop=1;jettySize=auto;html=1;fontSize=12;startSize=8;endSize=8;" edge="1" parent="WIyWlLk6GJQsqaUBKTNV-1">
          <mxGeometry relative="1" as="geometry">
            <mxPoint x="214.71" y="980" as="sourcePoint" />
            <mxPoint x="214.5" y="1030" as="targetPoint" />
            <Array as="points">
              <mxPoint x="214.71" y="980" />
            </Array>
          </mxGeometry>
        </mxCell>
        <mxCell id="NLumwokNqdI5FqmdFJhr-30" value="" style="edgeStyle=none;curved=1;rounded=0;orthogonalLoop=1;jettySize=auto;html=1;fontSize=12;startSize=8;endSize=8;" edge="1" parent="WIyWlLk6GJQsqaUBKTNV-1">
          <mxGeometry relative="1" as="geometry">
            <mxPoint x="214.71" y="1080" as="sourcePoint" />
            <mxPoint x="214.5" y="1140" as="targetPoint" />
          </mxGeometry>
        </mxCell>
        <mxCell id="NLumwokNqdI5FqmdFJhr-32" value="Pembuatan&amp;nbsp;&lt;div&gt;Laporan&lt;/div&gt;" style="rounded=0;whiteSpace=wrap;html=1;" vertex="1" parent="WIyWlLk6GJQsqaUBKTNV-1">
          <mxGeometry x="160" y="1140" width="110" height="50" as="geometry" />
        </mxCell>
        <mxCell id="NLumwokNqdI5FqmdFJhr-33" value="2" style="ellipse;whiteSpace=wrap;html=1;aspect=fixed;" vertex="1" parent="WIyWlLk6GJQsqaUBKTNV-1">
          <mxGeometry x="280" y="1060" width="40" height="40" as="geometry" />
        </mxCell>
        <mxCell id="NLumwokNqdI5FqmdFJhr-34" value="1" style="ellipse;whiteSpace=wrap;html=1;aspect=fixed;" vertex="1" parent="WIyWlLk6GJQsqaUBKTNV-1">
          <mxGeometry x="110" y="1070" width="40" height="40" as="geometry" />
        </mxCell>
        <mxCell id="NLumwokNqdI5FqmdFJhr-35" value="" style="edgeStyle=none;curved=1;rounded=0;orthogonalLoop=1;jettySize=auto;html=1;fontSize=12;startSize=8;endSize=8;exitX=0;exitY=1;exitDx=0;exitDy=0;" edge="1" parent="WIyWlLk6GJQsqaUBKTNV-1" source="NLumwokNqdI5FqmdFJhr-33">
          <mxGeometry relative="1" as="geometry">
            <mxPoint x="280" y="1100" as="sourcePoint" />
            <mxPoint x="250" y="1130" as="targetPoint" />
            <Array as="points">
              <mxPoint x="270" y="1110" />
            </Array>
          </mxGeometry>
        </mxCell>
        <mxCell id="NLumwokNqdI5FqmdFJhr-36" value="" style="edgeStyle=none;curved=1;rounded=0;orthogonalLoop=1;jettySize=auto;html=1;fontSize=12;startSize=8;endSize=8;" edge="1" parent="WIyWlLk6GJQsqaUBKTNV-1">
          <mxGeometry relative="1" as="geometry">
            <mxPoint x="150" y="1100" as="sourcePoint" />
            <mxPoint x="190" y="1130" as="targetPoint" />
          </mxGeometry>
        </mxCell>
        <mxCell id="NLumwokNqdI5FqmdFJhr-37" value="Laporan" style="strokeWidth=2;html=1;shape=mxgraph.flowchart.multi-document;whiteSpace=wrap;" vertex="1" parent="WIyWlLk6GJQsqaUBKTNV-1">
          <mxGeometry x="171" y="1250" width="88" height="50" as="geometry" />
        </mxCell>
        <mxCell id="NLumwokNqdI5FqmdFJhr-39" value="" style="edgeStyle=none;curved=1;rounded=0;orthogonalLoop=1;jettySize=auto;html=1;fontSize=12;startSize=8;endSize=8;" edge="1" parent="WIyWlLk6GJQsqaUBKTNV-1">
          <mxGeometry relative="1" as="geometry">
            <mxPoint x="214.76000000000002" y="1190" as="sourcePoint" />
            <mxPoint x="214.55" y="1250" as="targetPoint" />
          </mxGeometry>
        </mxCell>
        <mxCell id="NLumwokNqdI5FqmdFJhr-40" value="Selesai" style="rounded=1;whiteSpace=wrap;html=1;" vertex="1" parent="WIyWlLk6GJQsqaUBKTNV-1">
          <mxGeometry x="160" y="1340" width="100" height="50" as="geometry" />
        </mxCell>
        <mxCell id="NLumwokNqdI5FqmdFJhr-41" value="" style="edgeStyle=none;curved=1;rounded=0;orthogonalLoop=1;jettySize=auto;html=1;fontSize=12;startSize=8;endSize=8;exitX=0.5;exitY=0.88;exitDx=0;exitDy=0;exitPerimeter=0;" edge="1" parent="WIyWlLk6GJQsqaUBKTNV-1" source="NLumwokNqdI5FqmdFJhr-37">
          <mxGeometry relative="1" as="geometry">
            <mxPoint x="214.55" y="1310" as="sourcePoint" />
            <mxPoint x="214.79" y="1340" as="targetPoint" />
          </mxGeometry>
        </mxCell>
      </root>
    </mxGraphModel>
  </diagram>
</mxfile>
